<svg xmlns="http://www.w3.org/2000/svg" width="1201" height="490" fill="none" viewBox="0 0 1201 490"><g id="purplebackground"><g id="mountain" filter="url(#filter0_d_39:991)"><path fill="url(#paint0_linear_39:991)" d="M247.146 87.231C59.2174 96.1032 0 139.502 0 155.251V426.834L1200.14 490C1200.14 490 1199.5 56.5 1200.14 10.3391C1200.78 -35.8218 1085.11 96.1032 1034.06 96.1032C983.009 96.1032 1011.45 75.2547 844.249 63.572C677.052 51.8893 615.861 96.1032 518.017 96.1032C420.174 96.1032 435.074 78.3589 247.146 87.231Z" shape-rendering="crispEdges"/></g><g id="Nest r" filter="url(#filter1_i_39:991)"><path fill="#fff" d="M357.878 138.545H331.67L331.67 237.693H330.392L261.926 138.545H238.347L238.347 284H264.696L264.696 184.923H265.903L334.44 284H357.878L357.878 138.545ZM433.748 286.131C459.174 286.131 476.646 273.702 481.191 254.739L457.185 252.04C453.705 261.273 445.183 266.102 434.103 266.102C417.484 266.102 406.475 255.165 406.262 236.486H482.256L482.256 228.602C482.256 190.321 459.245 173.489 432.398 173.489C401.148 173.489 380.765 196.429 380.765 230.094C380.765 264.327 400.864 286.131 433.748 286.131ZM406.333 219.156C407.114 205.236 417.413 193.517 432.754 193.517C447.526 193.517 457.469 204.312 457.612 219.156H406.333ZM590.229 203.744C586.678 185.278 571.905 173.489 546.337 173.489C520.058 173.489 502.161 186.415 502.232 206.585C502.161 222.494 511.962 233.006 532.913 237.338L551.521 241.244C561.536 243.446 566.223 247.494 566.223 253.673C566.223 261.131 558.126 266.741 545.911 266.741C534.121 266.741 526.45 261.628 524.249 251.827L499.178 254.241C502.374 274.27 519.206 286.131 545.982 286.131C573.254 286.131 592.501 271.997 592.572 251.33C592.501 235.776 582.487 226.259 561.891 221.784L543.283 217.807C532.203 215.321 527.8 211.486 527.871 205.165C527.8 197.778 535.967 192.665 546.692 192.665C558.553 192.665 564.803 199.128 566.791 206.301L590.229 203.744ZM668.247 174.909H646.727L646.727 148.773H621.017L621.017 174.909H605.534L605.534 194.795H621.017L621.017 255.449C620.875 275.974 635.79 286.06 655.108 285.491C662.423 285.278 667.466 283.858 670.236 282.935L665.903 262.835C664.483 263.19 661.571 263.83 658.375 263.83C651.912 263.83 646.727 261.557 646.727 251.188L646.727 194.795H668.247L668.247 174.909ZM838.577 284H864.288L864.288 219.866C864.288 206.017 874.728 196.216 888.862 196.216C893.194 196.216 898.592 196.997 900.793 197.707L900.793 174.057C898.45 173.631 894.401 173.347 891.56 173.347C879.06 173.347 868.62 180.449 864.643 193.091H863.506L863.506 174.909H838.577L838.577 284Z"/></g><g id="Egg" filter="url(#filter2_d_39:991)"><path fill="#fff" d="M805.243 222.964C805.184 255.781 783.098 282.346 755.912 282.297C728.725 282.248 706.734 255.606 706.793 222.789C706.851 189.972 743.955 148.579 757.791 148.604C782.404 148.648 805.301 190.147 805.243 222.964Z"/></g><path id="Vector 5" stroke="#00CFEB" stroke-width=".5" d="M712.608 199.835C715.766 201.414 732.347 213.652 740.243 219.574L752.086 211.678L769.851 223.522L801.434 201.809"/><g id="bodyandbeak" filter="url(#filter3_d_39:991)"><g id="beak"><path id="beak2" fill="orange" d="M822.378 66.0148L839.68 46.9617L816.488 59.4387L822.378 66.0148Z"/><path id="beak1" fill="orange" d="M812.216 52.8946L835.654 42.2606L816.672 60.5156L812.216 52.8946Z"/></g><g id="feetpair"><path id="leg2" stroke="orange" d="M754.834 185.255L762.373 142.641"/><path id="leg1" stroke="orange" d="M762.373 142.641L772.599 185.26"/></g><path id="Vector 1" fill="#00CFEB" stroke="#00CFEB" stroke-width=".5" d="M770.175 45.3611C789.045 40.8073 801.424 41.9981 813.473 48.7061C819.81 54.235 822.234 57.5544 826.184 63.5467C839.667 114.05 810.95 158.983 754.69 168.892C737.794 168.328 726.543 165.972 698.529 152.674C711.56 147.427 718.251 138.443 729.275 113.474L729.514 112.735C741.589 75.2939 748.433 54.0719 770.175 45.3611Z"/><path id="belly" fill="#C0D9DD" d="M829.199 101.396C829.199 101.396 775.66 131.429 758.626 169.196C784.819 163.3 798.56 154.944 816.773 134.092C827.982 117.14 829.199 101.396 829.199 101.396Z"/><g id="wing"><path id="wing_2" fill="#81D1DC" stroke="#81D1DC" stroke-width=".5" d="M724.644 146.776C729.737 110.747 744.203 85.6191 775.21 78.4531C788.398 76.6793 796.748 86.934 798.78 100.883C800.071 135.246 750.391 154.279 724.644 146.776Z"/><path id="Vector 4" stroke="#00CFEB" stroke-width=".5" d="M738.214 135.324C788.846 97.0229 794.392 83.8942 790.836 82.1174"/></g><g id="eye"><g id="OpenEye"><ellipse id="Ellipse 1" fill="#fff" rx="9.87" ry="9.87" transform="matrix(0.9309 -0.365273 0.365275 0.9309 794.843 61.7978)"/><ellipse id="Ellipse 2" fill="#000" rx="5.922" ry="5.922" transform="matrix(0.9309 -0.365275 0.365273 0.9309 794.844 61.7978)"/></g><path id="ClosedEye" stroke="#000" d="M791.036 67.0414C794.93 69.1185 799.189 68.8007 800.902 67.3012C803.066 65.406 804.178 59.7193 803.135 57.4871"/></g></g><path id="Leading the way in intelligent property investment" fill="#fff" d="M239.523 334H256.568L256.568 330.875H243.045L243.045 304.909H239.523L239.523 334ZM270.716 334.455C275.148 334.455 278.386 332.239 279.409 328.943L276.17 328.034C275.318 330.307 273.344 331.443 270.716 331.443C266.781 331.443 264.068 328.901 263.912 324.227H279.75L279.75 322.807C279.75 314.682 274.92 311.898 270.375 311.898C264.466 311.898 260.545 316.557 260.545 323.261C260.545 329.966 264.409 334.455 270.716 334.455ZM263.912 321.33C264.139 317.935 266.54 314.909 270.375 314.909C274.011 314.909 276.341 317.636 276.341 321.33H263.912ZM291.27 334.511C295.077 334.511 297.065 332.466 297.747 331.045H297.918L297.918 334H301.27L301.27 319.625C301.27 312.693 295.986 311.898 293.202 311.898C289.906 311.898 286.156 313.034 284.452 317.011L287.634 318.148C288.372 316.557 290.119 314.852 293.315 314.852C296.398 314.852 297.918 316.486 297.918 319.284L297.918 319.398C297.918 321.017 296.27 320.875 292.293 321.386C288.244 321.912 283.827 322.807 283.827 327.807C283.827 332.068 287.122 334.511 291.27 334.511ZM291.781 331.5C289.111 331.5 287.179 330.307 287.179 327.977C287.179 325.42 289.509 324.625 292.122 324.284C293.543 324.114 297.349 323.716 297.918 323.034L297.918 326.102C297.918 328.83 295.759 331.5 291.781 331.5ZM315.627 334.455C319.832 334.455 321.252 331.841 321.991 330.648H322.388L322.388 334H325.627L325.627 304.909H322.275L322.275 315.648H321.991C321.252 314.511 319.945 311.898 315.684 311.898C310.173 311.898 306.366 316.273 306.366 323.148C306.366 330.08 310.173 334.455 315.627 334.455ZM316.082 331.443C311.877 331.443 309.718 327.75 309.718 323.091C309.718 318.489 311.82 314.909 316.082 314.909C320.173 314.909 322.332 318.205 322.332 323.091C322.332 328.034 320.116 331.443 316.082 331.443ZM332.232 334H335.585L335.585 312.182H332.232L332.232 334ZM333.937 308.545C335.244 308.545 336.323 307.523 336.323 306.273C336.323 305.023 335.244 304 333.937 304C332.63 304 331.55 305.023 331.55 306.273C331.55 307.523 332.63 308.545 333.937 308.545ZM345.077 320.875C345.077 317.068 347.435 314.909 350.645 314.909C353.756 314.909 355.645 316.94 355.645 320.364L355.645 334H358.997L358.997 320.136C358.997 314.568 356.028 311.898 351.611 311.898C348.315 311.898 346.27 313.375 345.247 315.591H344.963L344.963 312.182H341.724L341.724 334H345.077L345.077 320.875ZM373.93 342.636C379.157 342.636 383.362 340.25 383.362 334.625L383.362 312.182H380.123L380.123 315.648H379.782C379.043 314.511 377.68 311.898 373.418 311.898C367.907 311.898 364.1 316.273 364.1 322.977C364.1 329.795 368.077 333.659 373.362 333.659C377.623 333.659 378.987 331.159 379.725 329.966H380.009L380.009 334.398C380.009 338.034 377.452 339.682 373.93 339.682C369.967 339.682 368.575 337.594 367.68 336.386L365.009 338.261C366.373 340.548 369.058 342.636 373.93 342.636ZM373.816 330.648C369.612 330.648 367.452 327.466 367.452 322.92C367.452 318.489 369.555 314.909 373.816 314.909C377.907 314.909 380.066 318.205 380.066 322.92C380.066 327.75 377.85 330.648 373.816 330.648ZM410.237 312.182H405.577L405.577 306.955H402.225L402.225 312.182H398.93L398.93 315.023H402.225L402.225 328.659C402.225 332.466 405.293 334.284 408.134 334.284C409.384 334.284 410.18 334.057 410.634 333.886L409.952 330.875C409.668 330.932 409.214 331.045 408.475 331.045C406.998 331.045 405.577 330.591 405.577 327.75L405.577 315.023H410.237L410.237 312.182ZM419.1 320.875C419.1 317.068 421.529 314.909 424.839 314.909C427.992 314.909 429.896 316.898 429.896 320.364L429.896 334H433.248L433.248 320.136C433.248 314.526 430.265 311.898 425.805 311.898C422.367 311.898 420.407 313.332 419.384 315.591H419.1L419.1 304.909H415.748L415.748 334H419.1L419.1 320.875ZM448.528 334.455C452.96 334.455 456.199 332.239 457.222 328.943L453.983 328.034C453.131 330.307 451.156 331.443 448.528 331.443C444.594 331.443 441.881 328.901 441.724 324.227H457.563L457.563 322.807C457.563 314.682 452.733 311.898 448.188 311.898C442.278 311.898 438.358 316.557 438.358 323.261C438.358 329.966 442.222 334.455 448.528 334.455ZM441.724 321.33C441.952 317.935 444.352 314.909 448.188 314.909C451.824 314.909 454.153 317.636 454.153 321.33H441.724ZM478.855 334H482.151L486.923 317.239H487.264L492.037 334H495.332L501.98 312.182H498.457L493.741 328.83H493.514L488.912 312.182H485.332L480.673 328.886H480.446L475.73 312.182H472.207L478.855 334ZM512.832 334.511C516.639 334.511 518.628 332.466 519.31 331.045H519.48L519.48 334H522.832L522.832 319.625C522.832 312.693 517.548 311.898 514.764 311.898C511.469 311.898 507.719 313.034 506.014 317.011L509.196 318.148C509.935 316.557 511.682 314.852 514.878 314.852C517.96 314.852 519.48 316.486 519.48 319.284L519.48 319.398C519.48 321.017 517.832 320.875 513.855 321.386C509.807 321.912 505.389 322.807 505.389 327.807C505.389 332.068 508.685 334.511 512.832 334.511ZM513.344 331.5C510.673 331.5 508.741 330.307 508.741 327.977C508.741 325.42 511.071 324.625 513.685 324.284C515.105 324.114 518.912 323.716 519.48 323.034L519.48 326.102C519.48 328.83 517.321 331.5 513.344 331.5ZM530.329 342.182C533.354 342.182 535.485 340.577 536.749 337.182L546.039 312.239L542.374 312.182L536.352 329.568H536.124L530.102 312.182H526.465L534.533 334.114L533.908 335.818C532.687 339.142 531.181 339.455 528.738 338.83L527.886 341.784C528.227 341.955 529.192 342.182 530.329 342.182ZM561.724 334H565.077L565.077 312.182H561.724L561.724 334ZM563.429 308.545C564.736 308.545 565.815 307.523 565.815 306.273C565.815 305.023 564.736 304 563.429 304C562.122 304 561.043 305.023 561.043 306.273C561.043 307.523 562.122 308.545 563.429 308.545ZM574.569 320.875C574.569 317.068 576.927 314.909 580.137 314.909C583.248 314.909 585.137 316.94 585.137 320.364L585.137 334H588.489L588.489 320.136C588.489 314.568 585.521 311.898 581.103 311.898C577.808 311.898 575.762 313.375 574.739 315.591H574.455L574.455 312.182H571.217L571.217 334H574.569L574.569 320.875ZM605.865 334H609.217L609.217 312.182H605.865L605.865 334ZM607.57 308.545C608.876 308.545 609.956 307.523 609.956 306.273C609.956 305.023 608.876 304 607.57 304C606.263 304 605.183 305.023 605.183 306.273C605.183 307.523 606.263 308.545 607.57 308.545ZM618.71 320.875C618.71 317.068 621.067 314.909 624.278 314.909C627.388 314.909 629.278 316.94 629.278 320.364L629.278 334H632.63L632.63 320.136C632.63 314.568 629.661 311.898 625.244 311.898C621.948 311.898 619.903 313.375 618.88 315.591H618.596L618.596 312.182H615.357L615.357 334H618.71L618.71 320.875ZM648.244 312.182H643.585L643.585 306.955H640.233L640.233 312.182H636.938L636.938 315.023H640.233L640.233 328.659C640.233 332.466 643.301 334.284 646.142 334.284C647.392 334.284 648.188 334.057 648.642 333.886L647.96 330.875C647.676 330.932 647.222 331.045 646.483 331.045C645.006 331.045 643.585 330.591 643.585 327.75L643.585 315.023H648.244L648.244 312.182ZM662.2 334.455C666.632 334.455 669.871 332.239 670.893 328.943L667.655 328.034C666.803 330.307 664.828 331.443 662.2 331.443C658.266 331.443 655.553 328.901 655.396 324.227H671.234L671.234 322.807C671.234 314.682 666.405 311.898 661.859 311.898C655.95 311.898 652.03 316.557 652.03 323.261C652.03 329.966 655.893 334.455 662.2 334.455ZM655.396 321.33C655.624 317.935 658.024 314.909 661.859 314.909C665.496 314.909 667.825 317.636 667.825 321.33H655.396ZM679.686 304.909H676.334L676.334 334H679.686L679.686 304.909ZM689.178 304.909H685.826L685.826 334H689.178L689.178 304.909ZM695.318 334H698.67L698.67 312.182H695.318L695.318 334ZM697.023 308.545C698.33 308.545 699.409 307.523 699.409 306.273C699.409 305.023 698.33 304 697.023 304C695.716 304 694.636 305.023 694.636 306.273C694.636 307.523 695.716 308.545 697.023 308.545ZM713.617 342.636C718.844 342.636 723.049 340.25 723.049 334.625L723.049 312.182H719.81L719.81 315.648H719.469C718.731 314.511 717.367 311.898 713.106 311.898C707.594 311.898 703.788 316.273 703.788 322.977C703.788 329.795 707.765 333.659 713.049 333.659C717.31 333.659 718.674 331.159 719.413 329.966H719.697L719.697 334.398C719.697 338.034 717.14 339.682 713.617 339.682C709.654 339.682 708.262 337.594 707.367 336.386L704.697 338.261C706.06 340.548 708.745 342.636 713.617 342.636ZM713.504 330.648C709.299 330.648 707.14 327.466 707.14 322.92C707.14 318.489 709.242 314.909 713.504 314.909C717.594 314.909 719.754 318.205 719.754 322.92C719.754 327.75 717.538 330.648 713.504 330.648ZM738.333 334.455C742.765 334.455 746.004 332.239 747.026 328.943L743.788 328.034C742.935 330.307 740.961 331.443 738.333 331.443C734.398 331.443 731.685 328.901 731.529 324.227H747.367L747.367 322.807C747.367 314.682 742.538 311.898 737.992 311.898C732.083 311.898 728.163 316.557 728.163 323.261C728.163 329.966 732.026 334.455 738.333 334.455ZM731.529 321.33C731.756 317.935 734.157 314.909 737.992 314.909C741.629 314.909 743.958 317.636 743.958 321.33H731.529ZM755.819 320.875C755.819 317.068 758.177 314.909 761.387 314.909C764.498 314.909 766.387 316.94 766.387 320.364L766.387 334H769.739L769.739 320.136C769.739 314.568 766.771 311.898 762.353 311.898C759.058 311.898 757.012 313.375 755.989 315.591H755.705L755.705 312.182H752.467L752.467 334H755.819L755.819 320.875ZM785.354 312.182H780.695L780.695 306.955H777.342L777.342 312.182H774.047L774.047 315.023H777.342L777.342 328.659C777.342 332.466 780.411 334.284 783.251 334.284C784.501 334.284 785.297 334.057 785.751 333.886L785.07 330.875C784.786 330.932 784.331 331.045 783.592 331.045C782.115 331.045 780.695 330.591 780.695 327.75L780.695 315.023H785.354L785.354 312.182ZM801.646 342.182H804.999L804.999 330.648H805.283C806.021 331.841 807.442 334.455 811.646 334.455C817.101 334.455 820.908 330.08 820.908 323.148C820.908 316.273 817.101 311.898 811.589 311.898C807.328 311.898 806.021 314.511 805.283 315.648H804.885L804.885 312.182H801.646L801.646 342.182ZM804.942 323.091C804.942 318.205 807.101 314.909 811.192 314.909C815.453 314.909 817.555 318.489 817.555 323.091C817.555 327.75 815.396 331.443 811.192 331.443C807.158 331.443 804.942 328.034 804.942 323.091ZM826.021 334H829.374L829.374 320.193C829.374 317.239 831.703 315.08 834.885 315.08C835.78 315.08 836.703 315.25 836.93 315.307L836.93 311.898C836.547 311.869 835.666 311.841 835.169 311.841C832.555 311.841 830.283 313.318 829.487 315.477H829.26L829.26 312.182H826.021L826.021 334ZM849.104 334.455C855.013 334.455 858.99 329.966 858.99 323.205C858.99 316.386 855.013 311.898 849.104 311.898C843.195 311.898 839.217 316.386 839.217 323.205C839.217 329.966 843.195 334.455 849.104 334.455ZM849.104 331.443C844.615 331.443 842.57 327.58 842.57 323.205C842.57 318.83 844.615 314.909 849.104 314.909C853.592 314.909 855.638 318.83 855.638 323.205C855.638 327.58 853.592 331.443 849.104 331.443ZM864.107 342.182H867.46L867.46 330.648H867.744C868.482 331.841 869.903 334.455 874.107 334.455C879.562 334.455 883.369 330.08 883.369 323.148C883.369 316.273 879.562 311.898 874.05 311.898C869.789 311.898 868.482 314.511 867.744 315.648H867.346L867.346 312.182H864.107L864.107 342.182ZM867.403 323.091C867.403 318.205 869.562 314.909 873.653 314.909C877.914 314.909 880.016 318.489 880.016 323.091C880.016 327.75 877.857 331.443 873.653 331.443C869.619 331.443 867.403 328.034 867.403 323.091ZM897.63 334.455C902.062 334.455 905.3 332.239 906.323 328.943L903.085 328.034C902.232 330.307 900.258 331.443 897.63 331.443C893.695 331.443 890.982 328.901 890.826 324.227H906.664L906.664 322.807C906.664 314.682 901.835 311.898 897.289 311.898C891.38 311.898 887.46 316.557 887.46 323.261C887.46 329.966 891.323 334.455 897.63 334.455ZM890.826 321.33C891.053 317.935 893.454 314.909 897.289 314.909C900.925 314.909 903.255 317.636 903.255 321.33H890.826ZM911.763 334H915.116L915.116 320.193C915.116 317.239 917.445 315.08 920.627 315.08C921.522 315.08 922.445 315.25 922.673 315.307L922.673 311.898C922.289 311.869 921.408 311.841 920.911 311.841C918.298 311.841 916.025 313.318 915.229 315.477H915.002L915.002 312.182H911.763L911.763 334ZM937.502 312.182H932.843L932.843 306.955H929.491L929.491 312.182H926.195L926.195 315.023H929.491L929.491 328.659C929.491 332.466 932.559 334.284 935.4 334.284C936.65 334.284 937.445 334.057 937.9 333.886L937.218 330.875C936.934 330.932 936.479 331.045 935.741 331.045C934.263 331.045 932.843 330.591 932.843 327.75L932.843 315.023H937.502L937.502 312.182ZM944.704 342.182C947.729 342.182 949.86 340.577 951.124 337.182L960.414 312.239L956.749 312.182L950.727 329.568H950.499L944.477 312.182H940.84L948.908 334.114L948.283 335.818C947.062 339.142 945.556 339.455 943.113 338.83L942.261 341.784C942.602 341.955 943.567 342.182 944.704 342.182ZM239.068 382H242.42L242.42 360.182H239.068L239.068 382ZM240.773 356.545C242.08 356.545 243.159 355.523 243.159 354.273C243.159 353.023 242.08 352 240.773 352C239.466 352 238.386 353.023 238.386 354.273C238.386 355.523 239.466 356.545 240.773 356.545ZM251.913 368.875C251.913 365.068 254.271 362.909 257.481 362.909C260.592 362.909 262.481 364.94 262.481 368.364L262.481 382H265.833L265.833 368.136C265.833 362.568 262.864 359.898 258.447 359.898C255.151 359.898 253.106 361.375 252.083 363.591H251.799L251.799 360.182H248.56L248.56 382H251.913L251.913 368.875ZM289.018 360.182H285.382L279.359 377.568H279.132L273.109 360.182H269.473L277.541 382H280.95L289.018 360.182ZM301.81 382.455C306.241 382.455 309.48 380.239 310.503 376.943L307.264 376.034C306.412 378.307 304.438 379.443 301.81 379.443C297.875 379.443 295.162 376.901 295.006 372.227H310.844L310.844 370.807C310.844 362.682 306.014 359.898 301.469 359.898C295.56 359.898 291.639 364.557 291.639 371.261C291.639 377.966 295.503 382.455 301.81 382.455ZM295.006 369.33C295.233 365.935 297.634 362.909 301.469 362.909C305.105 362.909 307.435 365.636 307.435 369.33H295.006ZM331.398 365.068C330.347 361.972 327.989 359.898 323.67 359.898C319.068 359.898 315.659 362.511 315.659 366.205C315.659 369.216 317.449 371.233 321.455 372.17L325.091 373.023C327.293 373.534 328.33 374.585 328.33 376.091C328.33 377.966 326.341 379.5 323.216 379.5C320.474 379.5 318.756 378.321 318.159 375.977L314.977 376.773C315.759 380.48 318.813 382.455 323.273 382.455C328.344 382.455 331.795 379.685 331.795 375.92C331.795 372.881 329.892 370.963 326 370.011L322.761 369.216C320.176 368.577 319.011 367.71 319.011 366.034C319.011 364.159 321 362.795 323.67 362.795C326.597 362.795 327.804 364.415 328.386 365.92L331.398 365.068ZM346.33 360.182H341.671L341.671 354.955H338.319L338.319 360.182H335.023L335.023 363.023H338.319L338.319 376.659C338.319 380.466 341.387 382.284 344.228 382.284C345.478 382.284 346.273 382.057 346.728 381.886L346.046 378.875C345.762 378.932 345.308 379.045 344.569 379.045C343.092 379.045 341.671 378.591 341.671 375.75L341.671 363.023H346.33L346.33 360.182ZM351.373 382H354.725L354.725 368.364C354.725 365.168 357.055 362.909 359.668 362.909C362.211 362.909 363.987 364.571 363.987 367.057L363.987 382H367.396L367.396 367.795C367.396 364.983 369.157 362.909 372.225 362.909C374.612 362.909 376.657 364.173 376.657 367.398L376.657 382H380.009L380.009 367.398C380.009 362.27 377.254 359.898 373.362 359.898C370.237 359.898 367.95 361.332 366.827 363.591H366.6C365.521 361.261 363.617 359.898 360.748 359.898C357.907 359.898 355.805 361.261 354.896 363.591H354.612L354.612 360.182H351.373L351.373 382ZM395.286 382.455C399.718 382.455 402.957 380.239 403.979 376.943L400.741 376.034C399.888 378.307 397.914 379.443 395.286 379.443C391.352 379.443 388.638 376.901 388.482 372.227H404.32L404.32 370.807C404.32 362.682 399.491 359.898 394.945 359.898C389.036 359.898 385.116 364.557 385.116 371.261C385.116 377.966 388.979 382.455 395.286 382.455ZM388.482 369.33C388.71 365.935 391.11 362.909 394.945 362.909C398.582 362.909 400.911 365.636 400.911 369.33H388.482ZM412.772 368.875C412.772 365.068 415.13 362.909 418.34 362.909C421.451 362.909 423.34 364.94 423.34 368.364L423.34 382H426.692L426.692 368.136C426.692 362.568 423.724 359.898 419.306 359.898C416.011 359.898 413.965 361.375 412.942 363.591H412.658L412.658 360.182H409.42L409.42 382H412.772L412.772 368.875ZM442.307 360.182H437.648L437.648 354.955H434.295L434.295 360.182H431L431 363.023H434.295L434.295 376.659C434.295 380.466 437.364 382.284 440.205 382.284C441.455 382.284 442.25 382.057 442.705 381.886L442.023 378.875C441.739 378.932 441.284 379.045 440.545 379.045C439.068 379.045 437.648 378.591 437.648 375.75L437.648 363.023H442.307L442.307 360.182Z"/></g><defs><filter id="filter0_d_39:991" width="1208.14" height="497.459" x="-4" y=".541" color-interpolation-filters="sRGB" filterUnits="userSpaceOnUse"><feFlood flood-opacity="0" result="BackgroundImageFix"/><feColorMatrix in="SourceAlpha" result="hardAlpha" type="matrix" values="0 0 0 0 0 0 0 0 0 0 0 0 0 0 0 0 0 0 127 0"/><feOffset dy="4"/><feGaussianBlur stdDeviation="2"/><feComposite in2="hardAlpha" operator="out"/><feColorMatrix type="matrix" values="0 0 0 0 0 0 0 0 0 0 0 0 0 0 0 0 0 0 0.25 0"/><feBlend in2="BackgroundImageFix" mode="normal" result="effect1_dropShadow_39:991"/><feBlend in="SourceGraphic" in2="effect1_dropShadow_39:991" mode="normal" result="shape"/></filter><filter id="filter1_i_39:991" width="662.447" height="151.585" x="238.347" y="138.545" color-interpolation-filters="sRGB" filterUnits="userSpaceOnUse"><feFlood flood-opacity="0" result="BackgroundImageFix"/><feBlend in="SourceGraphic" in2="BackgroundImageFix" mode="normal" result="shape"/><feColorMatrix in="SourceAlpha" result="hardAlpha" type="matrix" values="0 0 0 0 0 0 0 0 0 0 0 0 0 0 0 0 0 0 127 0"/><feOffset dy="4"/><feGaussianBlur stdDeviation="2"/><feComposite in2="hardAlpha" k2="-1" k3="1" operator="arithmetic"/><feColorMatrix type="matrix" values="0 0 0 0 0 0 0 0 0 0 0 0 0 0 0 0 0 0 0.25 0"/><feBlend in2="shape" mode="normal" result="effect1_innerShadow_39:991"/></filter><filter id="filter2_d_39:991" width="106.689" height="141.872" x="702.687" y="148.513" color-interpolation-filters="sRGB" filterUnits="userSpaceOnUse"><feFlood flood-opacity="0" result="BackgroundImageFix"/><feColorMatrix in="SourceAlpha" result="hardAlpha" type="matrix" values="0 0 0 0 0 0 0 0 0 0 0 0 0 0 0 0 0 0 127 0"/><feOffset dy="4"/><feGaussianBlur stdDeviation="2"/><feComposite in2="hardAlpha" operator="out"/><feColorMatrix type="matrix" values="0 0 0 0 0 0 0 0 0 0 0 0 0 0 0 0 0 0 0.25 0"/><feBlend in2="BackgroundImageFix" mode="normal" result="effect1_dropShadow_39:991"/><feBlend in="SourceGraphic" in2="effect1_dropShadow_39:991" mode="normal" result="shape"/></filter><filter id="filter3_d_39:991" width="153.417" height="158.667" x="693.906" y="34.71" color-interpolation-filters="sRGB" filterUnits="userSpaceOnUse"><feFlood flood-opacity="0" result="BackgroundImageFix"/><feColorMatrix in="SourceAlpha" result="hardAlpha" type="matrix" values="0 0 0 0 0 0 0 0 0 0 0 0 0 0 0 0 0 0 127 0"/><feOffset dy="4"/><feGaussianBlur stdDeviation="2"/><feComposite in2="hardAlpha" operator="out"/><feColorMatrix type="matrix" values="0 0 0 0 0 0 0 0 0 0 0 0 0 0 0 0 0 0 0.25 0"/><feBlend in2="BackgroundImageFix" mode="normal" result="effect1_dropShadow_39:991"/><feBlend in="SourceGraphic" in2="effect1_dropShadow_39:991" mode="normal" result="shape"/></filter><linearGradient id="paint0_linear_39:991" x1="604.018" x2="647.444" y1="515.661" y2="-532.487" gradientUnits="userSpaceOnUse"><stop stop-color="#8000FF"/><stop offset="1" stop-color="#8000FF" stop-opacity="0"/></linearGradient></defs></svg>